<svg xmlns="http://www.w3.org/2000/svg" viewBox="0 0 300 300">
<path fill="#000000" d="M 299.0,299.5 L 5.5,299.0 L 9.5,281.0 L 20.5,262.0 L 28.5,242.0 L 41.0,228.5 L 77.0,207.5 L 113.0,193.5 L 116.5,190.0 L 115.5,183.0 L 106.5,170.0 L 100.5,165.0 L 90.5,136.0 L 75.5,118.0 L 72.5,110.0 L 71.5,98.0 L 77.5,78.0 L 81.5,70.0 L 93.0,57.5 L 105.0,49.5 L 117.0,45.5 L 127.0,43.5 L 142.0,44.5 L 165.0,53.5 L 176.5,65.0 L 182.5,77.0 L 185.5,87.0 L 184.0,97.5 L 180.0,97.5 L 170.0,84.5 L 162.0,80.5 L 150.0,69.5 L 139.0,69.5 L 127.0,72.5 L 101.0,88.5 L 94.5,95.0 L 94.5,101.0 L 99.5,113.0 L 105.0,117.5 L 115.0,120.5 L 120.5,126.0 L 122.5,143.0 L 130.5,152.0 L 129.5,160.0 L 138.5,169.0 L 139.5,183.0 L 148.0,188.5 L 156.0,189.5 L 157.5,192.0 L 155.5,206.0 L 145.5,214.0 L 145.5,218.0 L 154.0,222.5 L 171.0,222.5 L 199.0,211.5 L 203.5,202.0 L 201.5,188.0 L 204.0,185.5 L 214.0,191.5 L 243.0,201.5 L 275.0,216.5 L 299.5,234.0 L 299.0,299.5 Z"/>
</svg>